<svg xmlns="http://www.w3.org/2000/svg" viewBox="0 0 2055.04 1749.85"><defs><style>.cls-1{fill:#3257a7;}.cls-2{fill:#d75926;}.cls-3{fill:#fff;}.cls-4{fill:#231f20;}.cls-4,.cls-5{stroke:#3257a7;stroke-miterlimit:10;stroke-width:13.16px;}.cls-5{fill:none;}</style></defs><g id="Layer_2" data-name="Layer 2"><g id="Layer_1-2" data-name="Layer 1"><path class="cls-1" d="M1714.56,1186.81c-44.63-.1-89.26,0-133.89,0-22.28,0-29.88-7.63-29.89-29.83q0-91.18,0-182.37V959.39h0a44.77,44.77,0,0,1-.95-8.16c-.09-10-.79-20-.62-29.94q-12.43,0-24.88-.71c-.14,2.17-.34,4.33-.49,6.49a149.33,149.33,0,0,1,.94,17.29,92.37,92.37,0,0,1-1.62,15.68c.44.1.88.2,1.34.32v15.78q0,88.25,0,176.49c0,41.34,18.73,60,60.21,60,42.67,0,85.34.17,128-.11,10.71-.07,19.46,2.69,24.71,12.38,15.09,27.88-1.29,55.61-32.72,55.61h-441.4c-2,11.47,3.3,26.09-14.86,26-17.66,0-35.31.06-53-.07-8.91-.07-13.34-4.42-13.2-13.73.28-17.65.38-35.31,0-53-.24-11,5.26-14.73,15.37-14.56,12.75.22,25.5,0,38.26.06,25.8,0,25.79,0,27,25.5,0,.82.83,1.61,1.39,2.62h261.87c-4-6.71-7.08-12.18-10.5-17.41-46.47-71.15-97.89-138.16-162.16-194.51-84-73.68-184.66-102.22-293.53-104.16-115.21-2.06-230.5-1.48-345.74-.09-43,.52-80.45,17.71-103.87,56.16-35.08,57.59-69.87,115.39-102.94,174.14-9.92,17.63-20.5,23.93-40.76,23.89-50.4-.11-101.45-1.56-151.07,5.62-121.2,17.55-199.24,88.12-233.88,205.52-4.36,14.77-10.89,19.2-25.39,17.66-27-2.86-46.22,8.54-56.33,34.2v138.26c10,24.84,28.37,35.38,55.13,34.07,22.5-1.11,45.11-.16,67.67-.22,36.2-.1,52.2-16.91,53.76-52.76,1-23.26,2.05-47.33,8.59-69.4C215,1403.42,310.85,1339.44,416,1348.06c98.58,8.08,177.72,76,199.07,172.73,5.29,23.94,5.62,49,8.27,73.94H1023.2c-14.26-147.07,106.55-250.11,226.88-248.26,120.76,1.87,234.13,106.78,219.56,249.1h104.3c39.27,0,59.35-21,55.71-59.86-5.36-57.16-18.28-112.58-41.64-165.23-9.6-21.65-20.12-42.88-30.86-65.65h14.58c48.56,0,97.11.23,145.66-.13,27.94-.2,47.7-20.44,48.29-48.39.13-6.37.08-12.74,0-19.11C1765.34,1207.26,1744.76,1186.88,1714.56,1186.81ZM903.63,1365c-11.7.46-23.44.09-35.17.09-11.23,0-22.48.4-33.7,0-13.89-.57-15.89-10.11-15.61-21.52s4.09-18.76,17-18.64c22,.19,44,.24,66,0,11.92-.15,16.57,5.48,16.52,17C918.58,1353.11,919.21,1364.41,903.63,1365Zm17.6-229.84c0,24.14-12.24,37-36.82,37.19-42.61.38-85.22.1-127.83.1v.1c-41.63,0-83.27.59-124.87-.46-9.24-.23-22-3.85-26.34-10.41-3.63-5.45.48-18.82,5-26.42,21.94-36.94,45.29-73.06,67.89-109.62,10.62-17.17,27.22-23.72,45.78-24,52.88-.86,105.78-.73,158.67-.56,26.06.09,38.5,13,38.53,38.65Q921.28,1087.44,921.23,1135.17Zm130.54,37.38c-35.42,0-45.72-10.33-45.63-45.29,0-13.71,0-27.42,0-41.14h.05c0-14.68.22-29.38-.05-44.06-.41-22.94,13.88-40.45,36.68-40.38,86,.28,169.07,13.61,238.83,68.86,28.91,22.89,54.53,50,80.64,76.25,4.46,4.48,3.82,14,5.54,21.22-6.35,1.5-12.68,4.29-19,4.31Q1200.28,1172.75,1051.77,1172.55Z"/><path class="cls-1" d="M207,1561.29c.44-106,90.34-189.88,198.21-185.39,95.42,4,178.38,91,176.61,189.95-1.88,104.24-88.42,186.15-194.36,184C287.86,1747.74,205.16,1661.35,207,1561.29Zm115.07,1.89c.12,39.59,32.27,71.91,71.64,72,39.71.11,73.58-33.55,73.16-72.71-.43-40.13-33-71.7-73.85-71.52C353.23,1491.14,322,1523,322.09,1563.18Z"/><path class="cls-1" d="M1437.67,1563.14c0,103-83.64,186.4-186.9,186.4-103.56,0-188-84.23-187.86-187.28.19-103.54,84.74-186.33,190.2-186.23C1354.73,1376.14,1437.72,1460.27,1437.67,1563.14Zm-115.23-.11c.07-40.16-31.27-72.13-70.93-72.36-40.44-.24-73.53,32-73.75,71.78-.21,39.57,33,72.52,73.17,72.47A71.6,71.6,0,0,0,1322.44,1563Z"/><path class="cls-2" d="M1509.19,659.56c0-16,.23-32-.09-48-.31-15.61-10-25.9-23.59-25.81-12.65.09-22.87,10.46-23.07,25.17q-.68,48.65,0,97.3c.19,14.52,8.53,21,24.3,20.67,15-.31,22.09-6.76,22.42-21.29C1509.49,691.58,1509.21,675.57,1509.19,659.56Z"/><path class="cls-2" d="M1662,658.5c0-15.58.19-31.16,0-46.73-.22-15.83-9.42-25.95-23.13-26-13.3-.07-23,10.46-23.16,26.18q-.4,48,0,96c.13,14.37,7.56,20.84,22.53,20.93,15.87.1,23.44-6.37,23.72-21.11C1662.25,691.34,1662,674.92,1662,658.5Z"/><rect class="cls-2" x="1097.28" y="401.21" width="884.64" height="532.15" rx="37.49"/><path class="cls-2" d="M1738.2,578.84V438.27c0-15.63.11-31.26,0-46.89-.14-14.35-4.61-18.93-19-19q-85.45-.15-170.9-.05H1364.74c-20.58,0-23.75,3-23.76,23.15,0,70.54-.21,141.08.21,211.62.06,9.19-2.26,14.44-10.69,18.68-43.31,21.73-77.18,55.24-111.13,89-28.36,28.18-58.59,54.5-88.31,81.29-4.91,4.43-11.25,7.45-17.27,10.46-10.34,5.18-15.74,1.73-16.43-10-.14-2.53,0-5.07,0-7.6q0-193.89,0-387.76c0-22.61,5.14-29.46,27.38-27.19,27.29,2.79,45.92-7.11,65-26.47C1300.45,235,1412.61,123.88,1524.27,12.27c16.36-16.36,23.09-16.43,39.72.21q173.23,173.33,346.24,346.86c10,10.06,19.92,14.84,34.29,14.45,36.4-1,37.4.64,37.39,37.59q0,109,0,218c0,19-3.67,21.48-20.73,13.69-66.06-30.15-135.11-50.13-206.81-61.12C1749.41,581.14,1744.52,580.05,1738.2,578.84Z"/><path class="cls-2" d="M1094.59,345.49c-16.45,0-32.91.23-49.35-.07s-23.91-9.83-20.27-25.83q26-114.16,52.22-228.28c2.77-12.16,10-17.78,22.39-17.76,98.28.09,196.55,0,294.83.33,4.76,0,9.52,3.58,14.29,5.49-2.09,5-2.89,11.36-6.45,14.94Q1280.46,216.83,1157.9,338.59c-3.91,3.89-10.84,6.23-16.51,6.56-15.56.88-31.2.3-46.8.3Z"/><path class="cls-2" d="M1837,73.59q69.6,0,139.21,0c17.6,0,22.42,3.74,26.33,20.7q25.79,111.66,51.32,223.38c4.22,18.46-2.94,27.6-21.81,27.72-29.11.19-58.23.32-87.32-.22a22.72,22.72,0,0,1-14.26-5.92Q1807.12,216.45,1684.44,93c-3.08-3.1-6.47-10.39-5-12.53,2.44-3.59,8.65-6.4,13.3-6.45,48.09-.45,96.18-.27,144.28-.27Z"/><path class="cls-2" d="M1702.42,401.21v174c-115.18-8.81-228.86-9.29-339.79,31.43V401.21Z"/><path class="cls-1" d="M1538.62,728.9q-57.6,0-115.19,0c-17.56,0-23.71,6.06-23.78,23.52-.14,33.79-.27,67.59,0,101.37.46,48.44,26.53,85.84,72.12,102.84,47.1,17.56,94.45,17.37,140.68-2.54,41.88-18,64.24-51.35,66.23-96.68,1.56-35.41.48-70.94.31-106.42-.07-15.5-6.73-22-22.7-22C1617.1,728.81,1577.86,728.92,1538.62,728.9Z"/><rect class="cls-1" x="1608.19" y="624.91" width="25.75" height="123.01" rx="12.42"/><rect class="cls-1" x="1445.13" y="624.91" width="25.75" height="123.01" rx="12.42"/><rect class="cls-3" x="1340.92" y="345.64" width="397.26" height="106.63" rx="8.72"/><rect class="cls-3" x="1738.2" y="478.01" width="156.86" height="156.86"/><line class="cls-4" x1="1738.2" y1="514.84" x2="1895.06" y2="514.84"/><line class="cls-5" x1="1738.2" y1="557.75" x2="1895.06" y2="557.75"/><line class="cls-5" x1="1738.2" y1="597.98" x2="1895.06" y2="597.98"/><line class="cls-5" x1="1820.75" y1="478.01" x2="1820.75" y2="634.87"/></g></g></svg>