<svg id="Layer_1" data-name="Layer 1" fill="currentColor" xmlns="http://www.w3.org/2000/svg" width="24" height="24" viewBox="0 0 23.68 23.68"><path d="M12.57.66A11.84,11.84,0,1,1,.73,12.48,11.85,11.85,0,0,1,12.57.66ZM22.85,12.51A10.28,10.28,0,1,0,12.57,22.78,10.24,10.24,0,0,0,22.85,12.51Z" transform="translate(-0.73 -0.66)"/><path d="M9.09,18.88a1.26,1.26,0,0,1,.08-.43c.21-.68.41-1.35.63-2a.28.28,0,0,0-.12-.37L7.85,14.69a.85.85,0,0,1-.36-.86.8.8,0,0,1,.56-.68,1.67,1.67,0,0,1,.38-.06l2.24,0a.28.28,0,0,0,.31-.22c.23-.69.47-1.37.71-2.05a.89.89,0,0,1,.89-.72.91.91,0,0,1,.87.72c.24.68.48,1.36.71,2.05a.28.28,0,0,0,.31.22l2.24,0a.89.89,0,0,1,.92.6.91.91,0,0,1-.4,1.05q-.89.67-1.77,1.32a.28.28,0,0,0-.12.37c.23.71.45,1.43.66,2.15a.87.87,0,0,1-.71,1.17.9.9,0,0,1-.67-.19l-1.86-1.28a.27.27,0,0,0-.38,0l-1.91,1.31a.87.87,0,0,1-1.24-.22A.78.78,0,0,1,9.09,18.88Zm.32-4.63c0,.15.11.17.17.22.49.37,1,.75,1.5,1.12a.28.28,0,0,1,.12.38c-.21.67-.41,1.35-.63,2.08.63-.43,1.21-.82,1.78-1.23a.33.33,0,0,1,.44,0c.57.41,1.15.81,1.78,1.24-.22-.74-.42-1.42-.64-2.1a.26.26,0,0,1,.11-.34c.52-.38,1-.77,1.54-1.16.06,0,.15-.06.12-.19H14c-.62,0-.62,0-.83-.59s-.38-1.07-.59-1.68l-.13.31c-.2.57-.41,1.13-.59,1.71a.32.32,0,0,1-.36.25Z" transform="translate(-0.73 -0.66)"/><path d="M8,9.79c0-.65,0-1.3,0-1.95a2.74,2.74,0,0,1,2.45-2.56c1-.1,2,0,3,0A6.3,6.3,0,0,1,15,5.33a2.71,2.71,0,0,1,2.18,2.6c0,1.32,0,2.64,0,4a.68.68,0,0,1-.5.71.69.69,0,0,1-.75-.27.91.91,0,0,1-.14-.55V8.09a1.35,1.35,0,0,0-1.31-1.44q-1.91-.09-3.81,0a1.35,1.35,0,0,0-1.3,1.42v3.75a.71.71,0,0,1-.65.81A.69.69,0,0,1,8,11.89c0-.7,0-1.4,0-2.1Z" transform="translate(-0.73 -0.66)"/></svg>