<svg id="Layer_1" data-name="Layer 1" fill="currentColor" width="24" height="24" xmlns="http://www.w3.org/2000/svg" viewBox="0 0 23.27 23.28"><path d="M24.19,7.62A2.14,2.14,0,0,1,23,8.86c-2.7,1.26-5.38,2.55-8.07,3.83a7.54,7.54,0,0,1-1.64.67,3.34,3.34,0,0,1-2.09-.26L5.7,10.51,2,8.73a1.62,1.62,0,0,1-1-1.63A1.66,1.66,0,0,1,2,5.59L7.3,3.07c1.29-.61,2.58-1.24,3.87-1.83a3.15,3.15,0,0,1,2.79,0c2.43,1.14,4.85,2.3,7.27,3.45.6.28,1.18.58,1.79.84a2,2,0,0,1,1.17,1.19Zm-1.72-.44L22.09,7C19.2,5.61,16.3,4.24,13.41,2.85a1.81,1.81,0,0,0-1.65,0L3.91,6.59l-1,.49s-.1,0-.1.09,0,.06.09.08l.1,0,8.81,4.2a1.77,1.77,0,0,0,1.63,0l8.32-3.95Z" transform="translate(-0.92 -0.91)"/><path d="M12,24.19a7.06,7.06,0,0,1-1.84-.7l-8.63-4.3a.88.88,0,0,1-.58-.88.84.84,0,0,1,1-.77,2.54,2.54,0,0,1,.38.16c3,1.49,6,3,9,4.47a2.61,2.61,0,0,0,2.47,0l9-4.48a.92.92,0,0,1,1.39.51v.36a1.12,1.12,0,0,1-.64.69Q19.26,21.37,15,23.5a6.4,6.4,0,0,1-1.84.69Z" transform="translate(-0.92 -0.91)"/><path d="M24.19,12.89a1.15,1.15,0,0,1-.63.67l-9,4.48a4.14,4.14,0,0,1-3.9,0L2,13.74l-.57-.28a.86.86,0,1,1,.79-1.52L6.7,14.17l4.68,2.33a2.48,2.48,0,0,0,2.39,0l9-4.47a1.06,1.06,0,0,1,.67-.18.92.92,0,0,1,.75.67Z" transform="translate(-0.92 -0.91)"/></svg>