<svg id="Layer_1" fill="currentColor" data-name="Layer 1" xmlns="http://www.w3.org/2000/svg" viewBox="0 0 23.09 23.21"><path d="M22.41,22V9L12.33,9V.26H2.19L2.16,22H.76v1.5h23.1V22ZM7.93,9V6.12h2.92V9Zm2.92,1.49v2.84H7.93V10.45Zm-3-8.66h2.92V4.63H7.89Zm-4.34,0H6.47V4.63H3.55Zm3,4.33V9H3.59V6.12ZM3.59,10.45H6.51v2.84H3.59Zm0,4.33H6.53v2.84H3.61ZM9.41,22H5V19.08H9.41Zm1.46-4.33H8V14.78h2.92Zm2.87-7.17h2.92v2.84H13.74Zm0,4.33h2.92v2.84H13.74ZM19.51,22H15.23V19.08h4.28ZM21,17.62H18.08V14.78H21Zm0-4.33H18.08V10.45H21Z" transform="translate(-0.76 -0.26)"/></svg>