<svg id="Layer_1" data-name="Layer 1" fill="currentColor" xmlns="http://www.w3.org/2000/svg" viewBox="0 0 24.38 18.24"><g id="Group_1073" data-name="Group 1073"><path id="Path_4568" data-name="Path 4568" d="M15.93,17.76l-3-.35a6.11,6.11,0,0,0-2.09,0,1.69,1.69,0,0,0-.57.2.49.49,0,0,0-.16.39.28.28,0,0,0,.3.25s.06,0,.08,0a6.38,6.38,0,0,1,3.07-.07,11.76,11.76,0,0,0,3,.17A3.78,3.78,0,0,0,17.76,18a1.28,1.28,0,0,0,.65-1.49c-.09-.43,0-.53.39-.65l.16,0a12.78,12.78,0,0,0,3.91-1.72,2.81,2.81,0,0,1,.93-.34.71.71,0,0,1,.87.51.74.74,0,0,1-.12.61,2.06,2.06,0,0,1-.49.61c-1.44,1.11-2.88,2.2-4.33,3.3a6.69,6.69,0,0,1-1.79.9l-4.68,1.74a3.8,3.8,0,0,1-2.19.13Q7.34,20.74,3.58,20a4,4,0,0,0-1.15.08l-.64.08a.39.39,0,0,1-.48-.26s0-.06,0-.09C1,18.09.64,16.35.32,14.6c0-.33,0-.46.37-.53L1.13,14a4.38,4.38,0,0,0,1.46-.51,5.29,5.29,0,0,1,3.54-.41,13.14,13.14,0,0,1,3,1.12c.62.28,1.24.57,1.87.81a2.12,2.12,0,0,0,.87.14,15.1,15.1,0,0,1,4.78.46,1.38,1.38,0,0,1,1,.8.73.73,0,0,1-.26,1,.75.75,0,0,1-.18.08,11.74,11.74,0,0,1-1.31.28Z" transform="translate(-0.31 -3.38)"/><path id="Subtraction_1" data-name="Subtraction 1" d="M18.12,13H11.59a1.55,1.55,0,0,1-1.54-1.55,1.51,1.51,0,0,1,.14-.62,2.42,2.42,0,0,1,1-1.11,5.89,5.89,0,0,1,2.44-.85,7.86,7.86,0,0,1,2.9.07,3.1,3.1,0,0,0,1.72,4h-.14Z" transform="translate(-0.31 -3.38)"/><path id="Path_4570" data-name="Path 4570" d="M14.88,3.38a2.34,2.34,0,1,1-2.35,2.33,2.37,2.37,0,0,1,.69-1.65A2.35,2.35,0,0,1,14.88,3.38Z" transform="translate(-0.31 -3.38)"/><path id="check-circle-fill" d="M22.72,9.93a3,3,0,1,1-3-3h0A3,3,0,0,1,22.72,9.93ZM21.23,8.79a.28.28,0,0,0-.4,0h0l-1.31,1.67-.78-.8a.28.28,0,0,0-.4,0,.27.27,0,0,0,0,.37l1,1a.28.28,0,0,0,.4,0h0l1.5-1.88A.28.28,0,0,0,21.23,8.79Z" transform="translate(-0.31 -3.38)"/></g></svg>