<svg id="Layer_1" fill="currentColor" data-name="Layer 1" xmlns="http://www.w3.org/2000/svg" viewBox="0 0 23.09 23.21"><path d="M9.07,12a1.27,1.27,0,0,0-1.3-1.24c-2.14,0-4.29,0-6.43,0a.57.57,0,0,0-.26,0h0A1.26,1.26,0,0,0,0,12.15v6.11c0,1.06.48,1.55,1.53,1.55H7.36c1.24,0,1.71-.42,1.71-1.67V12ZM7.71,17.28c0,.87-.33,1.16-1.2,1.16H2.44c-.73,0-1.07-.34-1.07-1.08V13.09a.88.88,0,0,1,.74-1H2.3q2.25,0,4.5,0a.89.89,0,0,1,.91.87h0Z"/><path d="M20.53,12a1.28,1.28,0,0,0-1.3-1.24q-3.23-.06-6.43,0h-.27a1.24,1.24,0,0,0-1.06,1.41v6.11c0,1.06.48,1.55,1.53,1.55h5.82c1.24,0,1.71-.42,1.71-1.67V12Zm-1.36,5.31c0,.88-.33,1.17-1.2,1.17H13.9c-.73,0-1.07-.34-1.07-1.08V13.08a.87.87,0,0,1,.74-1h.19q2.25,0,4.5,0a.9.9,0,0,1,.91.87h0Z"/><path d="M9.12,1.27A1.27,1.27,0,0,0,7.82,0C5.68,0,3.53,0,1.39,0H1.12A1.25,1.25,0,0,0,.06,1.45V7.56c0,1.06.48,1.55,1.53,1.55H7.41c1.24,0,1.71-.42,1.71-1.67V1.27ZM7.76,6.58c0,.87-.33,1.17-1.2,1.17H2.49c-.73,0-1.07-.35-1.07-1.09V2.39a.87.87,0,0,1,.74-1h0a.54.54,0,0,1,.18,0q2.25,0,4.5,0a.89.89,0,0,1,.91.87V6.58Z"/><path d="M20.53,1.28A1.27,1.27,0,0,0,19.23,0Q16,0,12.8,0a.57.57,0,0,0-.26,0h0a1.25,1.25,0,0,0-1.06,1.42V7.57c0,1.06.48,1.55,1.53,1.55h5.82c1.24,0,1.71-.42,1.71-1.67V1.28ZM19.17,6.59c0,.87-.33,1.16-1.2,1.16H13.9c-.73,0-1.07-.34-1.07-1.08V2.4a.88.88,0,0,1,.74-1h0a.54.54,0,0,1,.18,0q2.25,0,4.5,0a.9.9,0,0,1,.91.87h0Z"/></svg>