<svg id="Layer_1" data-name="Layer 1" fill="currentColor" xmlns="http://www.w3.org/2000/svg" viewBox="0 0 23.73 23.73"><path d="M17.18,22.28H15.65c-.38,0-.55.17-.54.54s0,.89,0,1.34-.13.45-.44.22l-4.18-3.14c-.24-.18-.2-.34,0-.5l4.19-3.14c.32-.24.41,0,.42.25,0,.47,0,.94,0,1.41s.13.48.49.47c1,0,2,0,2.94,0,.8,0,1.15-.37,1.18-1.18,0-.6,0-1.19,0-1.79,0-.43.2-.62.62-.6h1.28c.44,0,.68.16.66.63,0,.7,0,1.41,0,2.1a3.68,3.68,0,0,1-3.79,3.41Z" transform="translate(-0.77 -0.77)"/><path d="M3,17.2c0-.51,0-1,0-1.53s-.18-.57-.58-.56-.85,0-1.27,0S.65,15,.89,14.64L4,10.51c.2-.27.36-.24.54,0l3.09,4.13c.26.34.1.46-.24.46s-.89,0-1.34,0-.53.11-.52.51c0,1,0,1.91,0,2.87s.37,1.21,1.26,1.23c.56,0,1.11,0,1.66,0s.68.16.66.64,0,.93,0,1.4-.14.52-.49.52c-.76,0-1.54,0-2.29,0A3.67,3.67,0,0,1,3,18.54c0-.44,0-.89,0-1.34Z" transform="translate(-0.77 -0.77)"/><path d="M8,3h1.6c.35,0,.5-.16.5-.5s0-.89,0-1.34.13-.49.47-.24Q12.68,2.45,14.75,4c.27.2.22.37,0,.55L10.6,7.63c-.29.22-.43.13-.44-.2s0-.94,0-1.4-.09-.52-.47-.51c-1,0-2,0-3,0-.76,0-1.11.39-1.14,1.16,0,.6,0,1.19,0,1.79,0,.41-.15.63-.59.63C2.57,9.1,3,9.37,3,7.3a6.91,6.91,0,0,1,0-1A3.71,3.71,0,0,1,6.64,3C7.11,3,7.58,3,8,3Z" transform="translate(-0.77 -0.77)"/><path d="M17.73,3c.34,0,.68,0,1,0a3.72,3.72,0,0,1,3.52,3.82c0,.87,0,1.74,0,2.62,0,.56.21.76.75.72a8.84,8.84,0,0,1,1.15,0c.32,0,.42.15.21.44q-1.56,2.06-3.1,4.13c-.23.31-.39.23-.59,0q-1.52-2.06-3.05-4.09c-.24-.31-.15-.46.22-.47s.9,0,1.34,0,.55-.09.53-.51c0-1,0-1.91,0-2.87s-.37-1.21-1.26-1.23c-.58,0-1.15,0-1.73,0-.39,0-.59-.17-.58-.58,0-.12,0-.25,0-.38C16.16,2.72,15.94,3,17.73,3Z" transform="translate(-0.77 -0.77)"/></svg>