<svg id="Layer_1" fill="currentColor" data-name="Layer 1" xmlns="http://www.w3.org/2000/svg" viewBox="0 0 21.38 21.09"><path d="M14.59,10.45c.12-.73.25-1.57.41-2.4a.83.83,0,0,0-.27-.85c-.6-.54-1.16-1.12-1.74-1.68-.14-.14-.32-.28-.25-.51s.28-.24.47-.26c.77-.12,1.53-.24,2.31-.33a1,1,0,0,0,.91-.64c.29-.68.65-1.34,1-2,.1-.19.16-.44.43-.44s.36.25.46.45c.33.66.69,1.3,1,2a1,1,0,0,0,1,.67c.76.08,1.51.21,2.27.32.18,0,.39,0,.46.25s-.1.35-.23.48c-.6.59-1.18,1.19-1.8,1.76a.73.73,0,0,0-.25.76c.14.73.26,1.47.38,2.21a1.17,1.17,0,0,1,0,.26c0,.18.06.39-.12.52s-.36,0-.53-.06c-.74-.38-1.49-.76-2.22-1.16a.77.77,0,0,0-.84,0c-.73.41-1.48.79-2.22,1.16C14.76,11.17,14.57,11,14.59,10.45Z" transform="translate(-1.62 -1.33)"/><path d="M10.65,17.92c0,1.22,0,2.44,0,3.65,0,.59-.16.85-.78.84q-3.73,0-7.45,0c-.56,0-.8-.19-.8-.77,0-2.5,0-5,0-7.51,0-.56.25-.74.77-.73H9.9c.6,0,.77.24.75.8C10.63,15.44,10.65,16.68,10.65,17.92Zm-2.19-.08c0-.56,0-1.12,0-1.68s-.18-.62-.63-.61q-1.65,0-3.3,0c-.47,0-.68.14-.67.64,0,1.14,0,2.29,0,3.44,0,.46.19.61.63.6,1.1,0,2.2,0,3.3,0,.48,0,.69-.15.67-.65S8.46,18.42,8.46,17.84Z" transform="translate(-1.62 -1.33)"/><path d="M17.56,22.4c-1.22,0-2.43,0-3.65,0-.57,0-.79-.22-.79-.79q0-3.72,0-7.44c0-.58.24-.79.8-.78h7.51c.55,0,.74.21.74.75,0,2.5,0,5,0,7.51,0,.55-.2.76-.75.75C20.14,22.39,18.85,22.4,17.56,22.4ZM20,17.89c0-.61,0-1.21,0-1.82,0-.35-.14-.52-.5-.52H15.9c-.36,0-.52.16-.52.5v3.66a.45.45,0,0,0,.51.51c1.2,0,2.39,0,3.59,0,.35,0,.5-.16.5-.51C20,19.11,20,18.5,20,17.89Z" transform="translate(-1.62 -1.33)"/><path d="M6.14,10.91c-1.24,0-2.48,0-3.72,0-.56,0-.81-.16-.8-.75q0-3.72,0-7.44c0-.59.23-.76.8-.76,2.48,0,5,0,7.44,0,.63,0,.8.23.8.82q0,3.66,0,7.3c0,.67-.25.85-.87.83C8.58,10.89,7.36,10.91,6.14,10.91ZM8.46,6.48c0-.54,0-1.08,0-1.61s-.13-.73-.67-.72c-1.07,0-2.15,0-3.22,0-.51,0-.73.15-.72.68,0,1.07,0,2.15,0,3.22,0,.47.14.68.64.67,1.1,0,2.2,0,3.29,0,.48,0,.69-.15.67-.64S8.46,7,8.46,6.48Z" transform="translate(-1.62 -1.33)"/></svg>