<?xml version="1.0" encoding="utf-8"?>
<!-- Generator: Adobe Illustrator 24.3.0, SVG Export Plug-In . SVG Version: 6.00 Build 0)  -->
<svg version="1.1" id="Layer_1" fill="currentColor" xmlns="http://www.w3.org/2000/svg" xmlns:xlink="http://www.w3.org/1999/xlink" x="0px" y="0px"
	 width="24" height="24"  viewBox="0 0 24.6 23.7" style="enable-background:new 0 0 24.6 23.7;" xml:space="preserve">
<path d="M10.4,10.5c1,0,1.9-0.8,1.9-1.9s-0.8-1.9-1.9-1.9S8.5,7.5,8.5,8.6S9.4,10.5,10.4,10.5z"/>
<path d="M15.9,11.6c-0.3-0.2-0.7-0.1-0.9,0.1l-2.7,3.8l-2.7-1.6C9.3,13.7,9,13.7,8.8,14l-2,2v3.5h10.9v-6L15.9,11.6
	C15.9,11.6,15.9,11.6,15.9,11.6z"/>
<path d="M14.2,1.7H7.3c-1.4,0-2.5,1.1-2.5,2.5v15.1c0,1.4,1.1,2.5,2.5,2.5h10c1.4,0,2.5-1.1,2.5-2.5V7.3L14.2,1.7z M15.4,3.7
	l2.5,2.5h-2.5V3.7z M18.6,11.7v2.5v5.2v0.8h-0.8H6.9H6v-0.8v-2.7v-5V4.2c0-0.7,0.6-1.3,1.3-1.3h6.9v2.5c0,1,0.8,1.9,1.9,1.9h2.5
	V11.7z"/>
</svg>
