<svg id="Layer_1" data-name="Layer 1" fill="currentColor" xmlns="http://www.w3.org/2000/svg" width="24" height="24" viewBox="0 0 22.18 21.08"><path d="M20.89,22.44a1,1,0,0,1-.61-1c0-4.11,0-8.22,0-12.33A.61.61,0,0,0,20,8.5L15.31,5.23c-.84-.59-1.68-1.18-2.5-1.78a.38.38,0,0,0-.51,0c-2,1.41-4,2.8-5.93,4.2l-1.21.84A.37.37,0,0,0,5,8.85V20.29c0,.38,0,.76,0,1.15a1,1,0,0,1-.62,1H3.91a2.2,2.2,0,0,1-.26-.15.88.88,0,0,1-.36-.8c0-3.78,0-7.56,0-11.33a.49.49,0,0,0,0-.31l-.47.33a.85.85,0,0,1-.63.19,1,1,0,0,1-.74-.57V9.2a1.32,1.32,0,0,1,.31-.36l2.5-1.77L9.56,3.31c.92-.64,1.83-1.3,2.74-1.95h.45l1.56,1.08,4.75,3.34c.81.58,1.64,1.14,2.45,1.72s1.42,1,2.08,1.5V10c-.43.45-.78.53-1.18.27-.12-.08-.24-.27-.37-.19s-.05.28-.05.42q0,5.45,0,10.87a1,1,0,0,1-.66,1.12Z" transform="translate(-1.41 -1.36)"/><path d="M8.13,17.3H7.08c-.47,0-.66-.17-.67-.65q0-1.1,0-2.19A.54.54,0,0,1,7,13.84H9.19c.46,0,.59.15.63.61a16.43,16.43,0,0,1,0,2.22c0,.45-.25.62-.71.63h-1Z" transform="translate(-1.41 -1.36)"/><path d="M8.1,18.18H9.18c.42,0,.63.18.65.6a15.91,15.91,0,0,1,0,2.29c0,.38-.2.53-.58.56a5.77,5.77,0,0,1-.72,0H7.12c-.51,0-.71-.19-.72-.69,0-.7,0-1.39,0-2.09,0-.48.21-.66.68-.68Z" transform="translate(-1.41 -1.36)"/><path d="M6.4,11.24c0-.35,0-.7,0-1.05,0-.52.19-.69.71-.7.69,0,1.38,0,2.07,0,.43,0,.62.15.64.57a13.63,13.63,0,0,1,0,2.39c0,.31-.16.42-.47.45a14.43,14.43,0,0,1-2.37,0c-.41,0-.55-.21-.57-.63v-1Z" transform="translate(-1.41 -1.36)"/><path d="M12.7,17.29c-.36,0-.71,0-1.07,0s-.63-.18-.64-.63q0-1.11,0-2.22c0-.38.18-.58.57-.59.76,0,1.51,0,2.27,0,.42,0,.54.17.58.6a11.6,11.6,0,0,1,0,1.56,4.7,4.7,0,0,1,0,.75.57.57,0,0,1-.61.53H12.7Z" transform="translate(-1.41 -1.36)"/><path d="M12.72,18.18h1c.46,0,.65.2.66.65,0,.73,0,1.45,0,2.17,0,.43-.19.63-.63.64H11.61A.56.56,0,0,1,11,21q0-1.1,0-2.19c0-.45.2-.62.64-.63s.73,0,1.09,0Z" transform="translate(-1.41 -1.36)"/><path d="M19,19.91c0,.37,0,.73,0,1.1s-.18.61-.57.62c-.76,0-1.53,0-2.29,0-.38,0-.55-.22-.56-.61,0-.74,0-1.49,0-2.24,0-.4.19-.59.59-.59q1.11,0,2.22,0c.41,0,.6.21.61.62s0,.74,0,1.1Z" transform="translate(-1.41 -1.36)"/></svg>