<svg xmlns="http://www.w3.org/2000/svg" width="39.709" height="39.703" viewBox="0 0 39.709 39.703">
  <g id="Group_4465" data-name="Group 4465" transform="translate(-2.379 -2.815)">
    <path id="Path_4725" data-name="Path 4725" d="M20.569,2.815A18.321,18.321,0,0,1,34.431,8.791,17.907,17.907,0,0,1,39.14,18.9a18.136,18.136,0,0,1-1.631,10.315A17.091,17.091,0,0,1,36.136,31.6c-.145.212-.156.333.043.53,1.741,1.723,3.467,3.46,5.2,5.191a2.272,2.272,0,0,1,.03,3.27q-.624.639-1.265,1.262a2.264,2.264,0,0,1-3.216-.013q-2.649-2.634-5.279-5.286c-.149-.15-.236-.149-.405-.033A17.919,17.919,0,0,1,22.982,39.6a18.091,18.091,0,0,1-12.923-3.361,17.774,17.774,0,0,1-7.2-10.908A17.886,17.886,0,0,1,5.6,10.914,17.992,17.992,0,0,1,17.849,3.076,18.447,18.447,0,0,1,20.569,2.815ZM6.849,21.245A14.008,14.008,0,1,0,20.867,7.282,14,14,0,0,0,6.849,21.245Z" fill="#0478c5"/>
    <path id="Path_4726" data-name="Path 4726" d="M20.853,27.9q-3.911,0-7.819,0a1.283,1.283,0,0,1-1.325-.944,1.682,1.682,0,0,1-.04-.468q0-4.245,0-8.489a1.257,1.257,0,0,1,1.338-1.337c1.257-.006,2.515-.008,3.773,0,.239,0,.318-.064.3-.3-.02-.3-.01-.6,0-.893A1.608,1.608,0,0,1,18.631,13.9q2.32-.027,4.642,0A1.632,1.632,0,0,1,24.83,15.53c.009.272,0,.546,0,.819,0,.314,0,.314.326.314h3.45a1.3,1.3,0,0,1,1.442,1.443q0,4.182,0,8.365A1.3,1.3,0,0,1,28.622,27.9Q24.737,27.906,20.853,27.9Zm.078-11.241c.719,0,1.438,0,2.156,0,.173,0,.232-.051.224-.225-.013-.263-.009-.528,0-.792,0-.152-.04-.23-.208-.229q-2.157,0-4.313,0c-.165,0-.214.079-.211.231.006.264.012.529,0,.793-.009.175.053.224.225.222C19.51,16.658,20.221,16.663,20.931,16.663Z" fill="#35a6d7"/>
  </g>
</svg>
