<svg id="Layer_1" fill="currentColor" data-name="Layer 1" xmlns="http://www.w3.org/2000/svg" viewBox="0 0 24.33 22.55"><path d="M24.66,12.54v11c0,.17-.07.26-.23.26h-.78c-.16,0-.22-.07-.22-.25,0-.79,0-.79-.74-.79h-1.1c-.19,0-.28.06-.29.29,0,.75,0,.75-.71.75h-.24c-.21,0-.28-.1-.28-.33,0-.69,0-1.38,0-2.08,0-.47,0-.47-.41-.47H5.47c-.6,0-.54,0-.54.62s0,1.28,0,1.92c0,.24-.07.36-.3.34a4.58,4.58,0,0,0-.64,0c-.23,0-.29-.11-.3-.35,0-.7,0-.7-.64-.7H1.86c-.21,0-.29.08-.29.32,0,.72,0,.72-.66.72s-.57,0-.57-.62V1.85a2.25,2.25,0,0,0,0-.26c0-.27.08-.39.34-.36a5.3,5.3,0,0,0,.69,0c.15,0,.22.07.2.24v0c0,.77,0,.77.73.77.37,0,.75,0,1.13,0,.2,0,.26-.08.27-.3,0-.74,0-.74.67-.74s.56-.05.56.64,0,1.24,0,1.85c0,.3.07.41.34.4s.83,0,1.24,0h13c.52,0,.52,0,.52-.61s0-1.28,0-1.92c0-.26.07-.38.32-.36a4.42,4.42,0,0,0,.63,0c.19,0,.28.07.29.3,0,.74,0,.74.72.74h1.13c.19,0,.27-.07.28-.3,0-.74,0-.74.7-.74.52,0,.52,0,.52.58ZM12.49,19.15h7.33c.22,0,.25-.1.25-.31V6.17c0-.24-.06-.32-.28-.32H5.35c-.42,0-.42,0-.42.45,0,2,0,4,0,6q0,3.26,0,6.5c0,.22.06.3.27.3ZM2.64,7.71H1.8c-.16,0-.23.07-.23.25v1.5c0,.18.07.25.23.25H3.44c.17,0,.26-.07.25-.27V8c0-.19-.07-.27-.24-.27Zm19.74,2h.81c.17,0,.25-.07.24-.27V8c0-.2-.07-.27-.24-.27H21.57c-.18,0-.27.07-.26.29V9.41c0,.21.08.29.26.29ZM2.62,17.3c.27,0,.54,0,.81,0s.27-.06.27-.28c0-.47,0-.95,0-1.43,0-.21-.08-.29-.27-.28H1.81c-.16,0-.24.06-.24.26,0,.49,0,1,0,1.46,0,.2.07.28.24.27S2.35,17.3,2.62,17.3Zm19.75,0h.84c.16,0,.22-.08.22-.25v-1.5c0-.18-.08-.24-.23-.24H21.55c-.17,0-.24.08-.24.27V17c0,.2.09.27.25.26ZM2.65,6h.78c.17,0,.27-.06.27-.28,0-.48,0-1,0-1.46,0-.17-.06-.26-.22-.26H1.8c-.16,0-.23.08-.23.26,0,.48,0,1,0,1.46,0,.21.09.28.27.28ZM22.39,4h-.83c-.17,0-.25.07-.25.27V5.72c0,.19.07.27.24.27h1.62c.18,0,.27-.08.26-.29V4.27c0-.21-.07-.28-.26-.28Zm0,7.43h-.78c-.18,0-.27.07-.26.28v1.42c0,.21.08.29.26.29h1.62c.16,0,.24-.07.24-.27V11.69c0-.2-.07-.28-.24-.27ZM2.65,19c-.27,0-.54,0-.81,0s-.27.08-.27.3c0,.47,0,.93,0,1.4,0,.2.06.3.25.29H3.44c.18,0,.26-.07.26-.28,0-.48,0-.95,0-1.43,0-.21-.09-.29-.27-.28S2.91,19,2.65,19Zm19.73,0h0c-.27,0-.54,0-.81,0s-.27.07-.26.28v1.43c0,.21.08.29.26.28h1.62c.16,0,.25-.06.24-.26V19.29c0-.19-.08-.27-.24-.27ZM2.64,13.41h.78c.19,0,.28-.08.27-.31,0-.46,0-.92,0-1.39,0-.2-.06-.3-.25-.29H1.83c-.18,0-.26.07-.26.28,0,.48,0,1,0,1.43,0,.21.08.29.26.28Z" transform="translate(-0.34 -1.22)"/><path d="M9.5,9.43a1.13,1.13,0,1,0,1.12,1.13A1.13,1.13,0,0,0,9.5,9.43Zm0,2.08a1,1,0,0,1,0-1.91,1,1,0,0,1,.95,1A1,1,0,0,1,9.51,11.51Z" transform="translate(-0.34 -1.22)"/><path d="M16.48,12.86,14.22,10.6c-.06,0-.06,0-.11,0l-2.79,2.8c-.05,0-.05,0-.1,0l-.81-.82s-.05,0-.09,0L8.59,14.32a.11.11,0,0,0,0,.1v1s0,0,0,0h7.86c.08,0,.08,0,.08-.08V13A.14.14,0,0,0,16.48,12.86Zm-.18,2.36H8.78v-.81l1.58-1.6.88.9,2.93-2.86L16.3,13Z" transform="translate(-0.34 -1.22)"/><path d="M18.13,8.91a.88.88,0,0,0,0-.17A.92.92,0,0,0,17.16,8H7.76a.92.92,0,0,0-.8.9V16a.76.76,0,0,0,0,.21.92.92,0,0,0,.91.7h9.39a1,1,0,0,0,.84-1Zm-.38,6.94a.59.59,0,0,1-.59.6H7.93a.6.6,0,0,1-.6-.6V9a.59.59,0,0,1,.6-.59h9.23a.58.58,0,0,1,.59.59Z" transform="translate(-0.34 -1.22)"/></svg>