<svg xmlns="http://www.w3.org/2000/svg" width="22" height="22" viewBox="0 0 22 22">
  <path d="M22,11 C22,7.963 20.768,5.211 18.778,3.222 C16.788,1.233 14.037,0 11,0 C7.963,0 5.211,1.232 3.222,3.222 C1.233,5.212 0,7.963 0,11 C0,14.037 1.232,16.789 3.222,18.778 C5.212,20.767 7.963,22 11,22 C14.037,22 16.789,20.768 18.778,18.778 C20.767,16.788 22,14.037 22,11 Z M20,11 C20,13.486 18.994,15.734 17.364,17.364 C15.734,18.994 13.486,20 11,20 C8.514,20 6.266,18.994 4.636,17.364 C3.006,15.734 2,13.486 2,11 C2,8.514 3.006,6.266 4.636,4.636 C6.266,3.006 8.514,2 11,2 C13.486,2 15.734,3.006 17.364,4.636 C18.994,6.266 20,8.514 20,11 Z M9.033,8.332 C9.216,7.811 9.592,7.414 10.055,7.192 C10.518,6.97 11.062,6.925 11.583,7.109 C12.041,7.27 12.402,7.579 12.633,7.968 C12.816,8.275 12.918,8.633 12.919,9.005 C12.919,9.16 12.88,9.314 12.802,9.469 C12.722,9.629 12.599,9.794 12.434,9.959 C11.725,10.668 10.603,11.051 10.603,11.051 C10.079,11.226 9.796,11.792 9.971,12.316 C10.146,12.84 10.712,13.123 11.236,12.948 C11.236,12.948 12.78,12.442 13.849,11.373 C14.128,11.094 14.394,10.759 14.592,10.363 C14.792,9.963 14.92,9.505 14.92,8.994 C14.916,8.263 14.716,7.557 14.353,6.945 C13.89,6.167 13.163,5.543 12.248,5.221 C11.206,4.855 10.113,4.946 9.191,5.388 C8.269,5.83 7.513,6.626 7.147,7.668 C6.963,8.189 7.237,8.76 7.758,8.943 C8.279,9.126 8.85,8.852 9.033,8.332 Z M12,16 C12,15.448 11.552,15 11,15 C10.448,15 10,15.448 10,16 C10,16.552 10.448,17 11,17 C11.552,17 12,16.552 12,16 Z"/>
</svg>
