<svg xmlns="http://www.w3.org/2000/svg" width="20" height="20" viewBox="0 0 20 20">
  <path d="M14.041,13.856 C14.007,13.882 13.974,13.911 13.942,13.943 C13.91,13.975 13.882,14.007 13.855,14.042 C12.597,15.255 10.886,16 9,16 C7.067,16 5.318,15.218 4.05,13.95 C2.782,12.682 2,10.933 2,9 C2,7.067 2.782,5.318 4.05,4.05 C5.318,2.782 7.067,2 9,2 C10.933,2 12.682,2.782 13.95,4.05 C15.218,5.318 16,7.067 16,9 C16,10.886 15.255,12.597 14.041,13.856 L14.041,13.856 Z M19.707,18.293 L16.032,14.618 C17.263,13.078 18,11.125 18,9 C18,6.515 16.992,4.264 15.364,2.636 C13.736,1.008 11.485,-1.77635684e-15 9,-1.77635684e-15 C6.515,-1.77635684e-15 4.264,1.008 2.636,2.636 C1.008,4.264 0,6.515 0,9 C0,11.485 1.008,13.736 2.636,15.364 C4.264,16.992 6.515,18 9,18 C11.125,18 13.078,17.263 14.618,16.032 L18.293,19.707 C18.684,20.098 19.317,20.098 19.707,19.707 C20.097,19.316 20.098,18.683 19.707,18.293 L19.707,18.293 Z"/>
</svg>
