<svg xmlns="http://www.w3.org/2000/svg" width="23.319" height="24.898" fill="currentColor" viewBox="0 0 23.319 24.898">
  <g id="Group_221" data-name="Group 221" transform="translate(2622 2690.635)">
    <g id="Group_220" data-name="Group 220" transform="translate(-2622 -2690.635)">
      <path id="Path_3516" data-name="Path 3516" d="M-2602.788-2690.635a1.853,1.853,0,0,1,1.2,1.987c-.03,3.681-.012,7.363-.012,11.044v.621h-1.3v-.632c0-3.681-.009-7.363.01-11.044,0-.5-.123-.684-.658-.682q-8.267.027-16.535,0c-.471,0-.61.131-.609.607q.022,9.616,0,19.233c0,.489.122.645.63.641,3.357-.022,6.714,0,10.071-.023.486,0,.775.092.851.607a4.61,4.61,0,0,0,.227.706h-11.29a1.553,1.553,0,0,1-1.781-1.772c0-6.483.011-12.965-.012-19.448a1.717,1.717,0,0,1,1.216-1.846Z" transform="translate(2622 2690.635)"/>
      <path id="Path_3517" data-name="Path 3517" d="M-2506.755-2546.045c.144.806.339.993,1.03,1,1.489.008,2.979.006,4.468,0,.284,0,.606,0,.582.36-.009.131-.349.341-.54.343-1.561.015-3.121-.014-4.682-.022a1.451,1.451,0,0,1-1.514-1.187q-.649-2.379-1.28-4.764c-.251-.957-.326-1.025-1.316-1.03a1.9,1.9,0,0,1-.587-.025.562.562,0,0,1-.325-.342c-.019-.083.183-.313.284-.312a5.666,5.666,0,0,1,1.692.138,1.607,1.607,0,0,1,.764.88.587.587,0,0,0,.651.446c2.4-.015,4.809-.009,7.214-.007.714,0,.78.088.605.791-.254,1.024-.549,2.039-.75,3.072-.108.556-.376.678-.883.67-1.6-.023-3.194-.008-4.791-.008Z" transform="translate(2522.944 2567.033)"/>
      <path id="Path_3518" data-name="Path 3518" d="M-2575.3-2650.6q-2.424,0-4.849,0c-.579,0-.866-.216-.869-.643s.286-.655.862-.656q4.9,0,9.8,0c.592,0,.863.208.866.646s-.276.652-.859.653Q-2572.827-2650.6-2575.3-2650.6Z" transform="translate(2585.459 2656.098)"/>
      <path id="Path_3519" data-name="Path 3519" d="M-2575.131-2579.719q-2.451,0-4.9,0c-.579,0-.865-.223-.862-.65s.3-.65.872-.651q4.9,0,9.8,0c.578,0,.858.224.856.66s-.277.64-.867.641Q-2572.679-2579.717-2575.131-2579.719Z" transform="translate(2585.344 2592.89)"/>
      <path id="Path_3520" data-name="Path 3520" d="M-2578.016-2542.956c-.7,0-1.4-.005-2.1,0-.431,0-.7-.2-.716-.623a.624.624,0,0,1,.678-.676q2.149-.031,4.3,0a.618.618,0,0,1,.658.692c-.021.432-.3.612-.729.606C-2576.619-2542.963-2577.318-2542.955-2578.016-2542.956Z" transform="translate(2585.285 2560.113)"/>
      <path id="Path_3521" data-name="Path 3521" d="M-2436.534-2475.022a.928.928,0,0,1-.907-.876.858.858,0,0,1,.836-.867.846.846,0,0,1,.922.825A.89.89,0,0,1-2436.534-2475.022Z" transform="translate(2457.421 2499.921)"/>
      <path id="Path_3522" data-name="Path 3522" d="M-2472.458-2476.777a.834.834,0,0,1,.856.887.871.871,0,0,1-.849.859.918.918,0,0,1-.9-.881A.859.859,0,0,1-2472.458-2476.777Z" transform="translate(2489.442 2499.929)"/>
    </g>
    <path id="Path_3523" data-name="Path 3523" d="M-2575.131-2614.561q-2.451,0-4.9,0c-.579,0-.865-.223-.862-.65s.3-.65.872-.651q4.9,0,9.8,0c.578,0,.858.224.856.66s-.277.64-.867.641Q-2572.679-2614.559-2575.131-2614.561Z" transform="translate(-36.656 -66.676)"/>
  </g>
</svg>
