<svg id="Layer_1" fill="currentColor" data-name="Layer 1" xmlns="http://www.w3.org/2000/svg" viewBox="0 0 14.96 17.76"><path d="M19.78,11.52c0,1.33,0,2.67,0,4a2.09,2.09,0,0,1-2.14,2.29c-.59,0-.77.22-.81.8a2.09,2.09,0,0,1-2.36,2.13c-2.41,0-4.83,0-7.24,0a2.14,2.14,0,0,1-2.39-2.39c0-3.36,0-6.71,0-10.07A2.12,2.12,0,0,1,7.18,5.92c.53,0,.66-.2.67-.7A2,2,0,0,1,10.12,3h5a4.6,4.6,0,0,1,4.7,4.73C19.79,9,19.78,10.26,19.78,11.52ZM9.44,10.35v5c0,.79.14.93.93.93,2.25,0,4.5,0,6.75,0,.85,0,1.07-.21,1.07-1,0-1.73,0-3.45,0-5.17,0-2,.22-1.83-1.79-1.85a2.08,2.08,0,0,1-2.19-2.23c0-.13,0-.27,0-.41,0-.83-.09-.93-.9-.93h-3c-.81,0-.89.1-.9.93Zm-2.92,3c0,1.68,0,3.36,0,5,0,.49.14.78.7.78h7.24c.54,0,.71-.28.71-.78s-.38-.52-.75-.53c-1.4,0-2.81,0-4.21,0a2.09,2.09,0,0,1-2.37-2.37c0-2.44,0-4.87,0-7.31,0-.52-.18-.7-.69-.66s-.64.35-.64.8C6.53,10,6.52,11.65,6.52,13.33ZM16.9,6.59h.34c.2,0,.46.09.57-.13s-.08-.39-.19-.55a2.81,2.81,0,0,0-1.33-1c-.21-.08-.39-.15-.48.16C15.5,6,15.88,6.59,16.9,6.59Z" transform="translate(-4.83 -2.99)"/></svg>