<svg id="Layer_1" data-name="Layer 1" xmlns="http://www.w3.org/2000/svg" viewBox="0 0 19.01 15.22"><path d="M6.69,3.17A2.9,2.9,0,1,0,9.56,6.09,2.89,2.89,0,0,0,6.69,3.17ZM6.16,7.46,4.92,6.25l.49-.49.75.75L7.94,4.73l.48.43Z" transform="translate(-1.18 -0.91)"/><rect x="12.58" y="3.63" width="5.31" height="5.93"/><rect x="12.58" y="1.06" width="5.31" height="2.02"/><rect x="8.71" y="11.47" width="1.7" height="0.56"/><path d="M20.18,11.34V1.51a.59.59,0,0,0-.52-.6H1.78a.6.6,0,0,0-.6.61h0V13.6h0v.34H8.67v1.14H7v.71H7v.34h7.8v-1H13.14V13.94h7v-.11h0V11.34ZM1.78,1.49H19.66V11H1.78Zm-.26,10H19.85V13.6H1.52Zm11.61,3.72h0l1.33,0v.51H7.35v-.51H9V13.94H12.8v1.32Z" transform="translate(-1.18 -0.91)"/></svg>