<svg id="Layer_1" data-name="Layer 1" fill="currentColor" xmlns="http://www.w3.org/2000/svg" width="24" height="24" viewBox="0 0 22.52 22.5"><path d="M12.56,3a9.57,9.57,0,0,0-1.37,19,9.29,9.29,0,0,0,6.64-1.45c.54-.36,1-.31,1.33.13s.13.92-.41,1.29a11.2,11.2,0,0,1-13.34-.77,11.08,11.08,0,0,1-4.06-9.14,11.26,11.26,0,0,1,22.37-1.2,10.94,10.94,0,0,1-2.11,8.44.89.89,0,0,1-1.31.3c-.41-.32-.43-.78-.05-1.3A9.56,9.56,0,0,0,12.56,3Z" transform="translate(-1.35 -1.37)"/><path d="M6.92,12.78c0-.88,0-1.76,0-2.65,0-.38.11-.45.44-.25q2.23,1.36,4.48,2.7a.61.61,0,0,1,.33.57c0,1.77,0,3.53,0,5.29,0,.37-.12.45-.45.25L7.23,16a.63.63,0,0,1-.31-.63C6.93,14.5,6.92,13.64,6.92,12.78Z" transform="translate(-1.35 -1.37)"/><path d="M13.13,15.8c0-.88,0-1.76,0-2.64a.58.58,0,0,1,.36-.6c1.45-.73,2.89-1.48,4.33-2.22.31-.16.46-.14.46.26,0,1.77,0,3.55,0,5.32a.52.52,0,0,1-.32.52c-1.46.75-2.92,1.5-4.37,2.27-.4.2-.46,0-.46-.33C13.14,17.52,13.13,16.66,13.13,15.8Z" transform="translate(-1.35 -1.37)"/><path d="M17.57,9.36c0,.17-.13.2-.21.24l-4.47,2.3a.54.54,0,0,1-.57-.05Q10.11,10.46,7.9,9.07c-.36-.23-.25-.34,0-.5L12.14,6.4a.56.56,0,0,1,.61,0l4.58,2.73C17.43,9.22,17.54,9.27,17.57,9.36Z" transform="translate(-1.35 -1.37)"/></svg>