<svg id="Layer_1" data-name="Layer 1" fill="currentColor" xmlns="http://www.w3.org/2000/svg" width="24" height="24"  viewBox="0 0 21.76 23.68"><path d="M1.62,11.38v-8a4.18,4.18,0,0,1,.1-1.23,2,2,0,0,1,2-1.48c2.59,0,5.17,0,7.76,0h2.82A.83.83,0,0,1,15,.94c1.07,1.2,2.16,2.39,3.24,3.58a4,4,0,0,0,.53.56,1.4,1.4,0,0,1,.5,1.23c0,1.08,0,2.16,0,3.25,0,.93,0,1.87,0,2.81s0,.81-.75.82-.71,0-.68-.74,0-1.21,0-1.82,0-1.42,0-2.13c0-.56,0-1.12,0-1.67,0-.24-.1-.33-.34-.32-.61,0-1.22,0-1.82,0a1.71,1.71,0,0,1-1.81-1.8c0-.78,0-1.55,0-2.33,0-.25-.07-.34-.33-.34H10.39l-3,0-2.8,0c-.37,0-.75,0-1.11,0a.5.5,0,0,0-.46.51c0,.68,0,1.36,0,2S3,5.85,3,6.45s0,.91,0,1.36C3,9,3,10.27,3,11.5c0,.92,0,1.85,0,2.78,0,1.41,0,2.82,0,4.24,0,.46,0,.93,0,1.39.05.66.16.75.81.75,1.53,0,3.07,0,4.61,0,1.16,0,2.32,0,3.48,0a.47.47,0,0,1,.55.42,4.83,4.83,0,0,0,.18.62c.12.35.11.37-.25.38H9.56c-1.93,0-3.87,0-5.81,0a2,2,0,0,1-2.1-1.91c0-.87,0-1.75,0-2.63,0-2.06,0-4.11,0-6.17Z" transform="translate(-1.62 -0.66)"/><path d="M13.62,19.48a4.88,4.88,0,1,1,9.76-.08,4.88,4.88,0,1,1-9.76.08ZM17.36,22a1,1,0,0,0,.77-.41c.35-.39.71-.78,1.07-1.16l2.17-2.33a.7.7,0,0,0,.2-.63.67.67,0,0,0-.46-.54.73.73,0,0,0-.76.22c-.87,1-1.76,1.88-2.63,2.84-.21.23-.32.19-.49,0-.31-.4-.63-.79-1-1.16a.7.7,0,0,0-1-.05.68.68,0,0,0-.12.9c.57.73,1.15,1.46,1.78,2.14A.63.63,0,0,0,17.36,22Z" transform="translate(-1.62 -0.66)"/><path d="M8.54,7.06H6a1.2,1.2,0,0,1-.19,0c-.38,0-.59-.17-.59-.45s.24-.48.61-.48h5.66A.51.51,0,0,1,12,6.6c0,.27-.18.46-.54.46C10.48,7.07,9.51,7.06,8.54,7.06Z" transform="translate(-1.62 -0.66)"/><path d="M8.61,9.15h3a.45.45,0,0,1,.05.89,2,2,0,0,1-.49,0H6.06a3.05,3.05,0,0,1-.52,0,.41.41,0,0,1-.35-.44.42.42,0,0,1,.4-.44,3,3,0,0,1,.52,0c.84,0,1.67,0,2.5,0Z" transform="translate(-1.62 -0.66)"/><path d="M8.59,13.08h-3a.44.44,0,0,1-.38-.46.4.4,0,0,1,.41-.42c.24,0,.47,0,.71,0h4.94a2.3,2.3,0,0,1,.37,0,.41.41,0,0,1,.38.38.45.45,0,0,1-.35.49,1.88,1.88,0,0,1-.34,0Z" transform="translate(-1.62 -0.66)"/></svg>