<svg xmlns="http://www.w3.org/2000/svg" width="31.726" height="23.376" viewBox="0 0 31.726 23.376">
  <g id="Group_4292" data-name="Group 4292" transform="translate(-1704.516 -586.674)">
    <path id="Path_4585" data-name="Path 4585" d="M1762.385,601.1a9.378,9.378,0,0,1-2.789-.709c-1.048-.147-1.547-.63-2.592-.8a2.875,2.875,0,0,1-.861-.307,8.059,8.059,0,0,0-2.542-.913c-.471-.07-.949-.093-1.425-.121a.726.726,0,0,1-.687-.633.365.365,0,0,1,.133-.241c.288-.255.583-.5.882-.744a.263.263,0,0,0,.1-.327c-.066-.2-.113-.4-.161-.6a.234.234,0,0,0-.208-.2c-.409-.071-.817-.151-1.227-.22a.224.224,0,0,1-.21-.247c0-.429,0-.857.007-1.286a.208.208,0,0,1,.2-.222c.382-.065.764-.135,1.147-.2.212-.036.27-.091.315-.3a4.287,4.287,0,0,1,.134-.506.282.282,0,0,0-.1-.348c-.279-.232-.556-.466-.835-.7-.225-.188-.237-.25-.092-.5.182-.314.361-.629.542-.942.111-.191.181-.219.392-.142.366.132.732.265,1.1.4a.249.249,0,0,0,.308-.07c.141-.154.289-.3.442-.444a.255.255,0,0,0,.068-.31c-.134-.359-.264-.721-.4-1.081-.084-.23-.061-.3.148-.417l.969-.562c.2-.114.272-.1.422.08.235.283.474.564.7.852a.319.319,0,0,0,.391.115c.182-.058.369-.1.556-.145a.232.232,0,0,0,.205-.2c.064-.378.132-.756.193-1.135.042-.257.1-.315.366-.315.379,0,.759,0,1.138,0,.18,0,.244.057.276.236.067.372.136.744.2,1.117a.344.344,0,0,0,.27.313c.175.043.349.1.524.139a.319.319,0,0,0,.352-.115c.23-.28.467-.555.7-.834.174-.21.244-.224.473-.09.313.183.627.364.94.547.2.115.226.186.147.406-.127.356-.251.714-.39,1.065a.292.292,0,0,0,.1.375,3.313,3.313,0,0,1,.372.373.291.291,0,0,0,.376.1c.336-.133.677-.254,1.016-.381.263-.1.332-.071.467.167.176.311.355.619.533.928.118.2.106.288-.074.439-.294.248-.587.5-.886.74a.264.264,0,0,0-.093.319c.06.2.116.4.16.6.036.163.154.2.289.22.378.065.755.136,1.134.2a.24.24,0,0,1,.229.28c-.006.4-.005.8,0,1.2a.235.235,0,0,1-.221.271c-.368.061-.734.132-1.1.194-.256.043-.28.065-.343.32-.041.165-.088.328-.141.49a.285.285,0,0,0,.1.348c.3.238.584.483.874.729.18.152.19.233.071.44-.186.324-.37.648-.556.972-.112.195-.175.219-.391.14q-.525-.191-1.049-.388c-.211-.079-.261-.061-.411.111a2.553,2.553,0,0,1-.3.3.345.345,0,0,0-.134.461c.119.33.244.658.365.988.1.263.064.34-.185.472C1762.671,600.939,1762.539,601.017,1762.385,601.1Zm-.244-6.765a3.632,3.632,0,1,0-3.665,3.714A3.626,3.626,0,0,0,1762.142,594.339Z" transform="translate(-40.399)" fill="#5a5a5a"/>
    <path id="Path_4588" data-name="Path 4588" d="M2282.906,770.91c-1.389-.162-2.635-.314-3.882-.45a8.085,8.085,0,0,0-2.718.036,2.189,2.189,0,0,0-.741.262.64.64,0,0,0-.21.511.357.357,0,0,0,.5.286,8.212,8.212,0,0,1,4-.1,14.94,14.94,0,0,0,3.852.22,5.128,5.128,0,0,0,1.595-.5,1.678,1.678,0,0,0,.847-1.942c-.112-.566-.033-.7.508-.849a1.918,1.918,0,0,1,.2-.05,16.963,16.963,0,0,0,5.092-2.237,3.581,3.581,0,0,1,1.215-.444.927.927,0,0,1,.973,1.451,2.465,2.465,0,0,1-.644.8c-1.866,1.447-3.75,2.872-5.63,4.3a8.776,8.776,0,0,1-2.335,1.177c-2.032.747-4.058,1.51-6.086,2.266a5.031,5.031,0,0,1-2.853.159c-3.247-.672-6.5-1.327-9.755-1.943a5.639,5.639,0,0,0-1.507.111c-.275.026-.549.066-.824.1a.507.507,0,0,1-.649-.453q-.638-3.412-1.263-6.827c-.077-.422.052-.593.475-.682q.289-.06.578-.107a5.856,5.856,0,0,0,1.9-.663,6.822,6.822,0,0,1,4.61-.531,16.635,16.635,0,0,1,3.944,1.446c.807.368,1.61.748,2.437,1.067a2.911,2.911,0,0,0,1.137.174,19.814,19.814,0,0,1,6.232.6,1.784,1.784,0,0,1,1.3,1.041.951.951,0,0,1-.567,1.4A13.81,13.81,0,0,1,2282.906,770.91Z" transform="translate(-558.052 -165.883)" fill="#5a5a5a"/>
  </g>
</svg>
