<svg id="Layer_1" data-name="Layer 1" fill="currentColor" xmlns="http://www.w3.org/2000/svg" viewBox="0 0 19.22 22.26"><path d="M14.69,9.13c0,.67,0,1.33,0,2a.71.71,0,0,1-.81.8h-3c-.63,0-.87-.25-.87-.87,0-1.31,0-2.63,0-3.95,0-.33-.1-.43-.41-.4s-.41,0-.61,0a.71.71,0,0,1-.74-.42.72.72,0,0,1,.14-.81l2.67-3.41c.22-.29.44-.58.67-.86a.71.71,0,0,1,1.21,0l3.4,4.34a.72.72,0,0,1-.57,1.18h0c-.32,0-.75-.14-1,.07s-.06.66-.07,1S14.69,8.68,14.69,9.13Zm-.46-3.86s0-.06,0-.08l-1.77-2.3c-.15-.19-.21,0-.29.07-.41.52-.82,1-1.22,1.58a2.34,2.34,0,0,0-.51.73c.83.07,1,.24,1,1.06,0,1.27,0,2.55,0,3.82,0,.28.09.39.37.37a9.91,9.91,0,0,1,1.09,0c.29,0,.37-.09.36-.37,0-1.27,0-2.55,0-3.82C13.26,5.52,13.42,5.35,14.23,5.27Z" transform="translate(-2.74 -0.86)"/><path d="M22,15.63c0-2.84,0-2.84-.86-2.83H21c-.41-.26-.5.38-.49,1.65,0,.33,0,.62,0,.86v.08c0,.78,0,1.57,0,2.35a.49.49,0,0,1-.36.54l-6.65,2.87a.65.65,0,0,1-.4.11v-.9c0-1.8,0-3.6,0-5.39a.56.56,0,0,1,.43-.63c2.57-1,5.13-1.95,7.71-2.92.38-.14.69-.31.68-.78s-.31-.61-.68-.74C20,9.44,18.65,9,17.34,8.49c-1-.36-1-.36-1.35.63-.11.3,0,.39.25.49,1,.33,1.9.68,2.84,1a.2.2,0,0,1-.17.14l-6.24,2.39a.73.73,0,0,1-.58,0L5.92,10.79c-.1,0-.22,0-.29-.18l2.05-.73c1-.36,1-.35.63-1.35-.11-.3-.22-.33-.49-.23-1.46.54-2.91,1.06-4.37,1.58-.37.13-.67.29-.68.73s.3.64.68.78l7.88,3c.23.08.39.16.38.47q0,3,0,6.09c0,.31,0,.4-.37.26q-3.4-1.49-6.83-2.92a.47.47,0,0,1-.34-.5c0-1.35,0-2.7,0-4,0-1,0-1-1-1-.32,0-.42.07-.42.41q0,2.63,0,5.25a.92.92,0,0,0,.64,1q2.42,1,4.83,2.06c1.32.57,2.67,1.09,4,1.73h.52c.1-.17.29-.18.44-.25,2.73-1.19,5.47-2.38,8.21-3.55A.89.89,0,0,0,22,18.4c0-.75,0-1.5,0-2.25C22,16,22,15.82,22,15.63Z" transform="translate(-2.74 -0.86)"/></svg>