<svg xmlns="http://www.w3.org/2000/svg" width="20px" height="30px" viewBox="0 0 35 35">
  <path id="Icon_awesome-rupee-sign" data-name="Icon awesome-rupee-sign" d="M21.656,6.75a.844.844,0,0,0,.844-.844V3.094a.844.844,0,0,0-.844-.844H.844A.844.844,0,0,0,0,3.094V6.24a.844.844,0,0,0,.844.844h6A5.072,5.072,0,0,1,11.127,9H.844A.844.844,0,0,0,0,9.844v2.813a.844.844,0,0,0,.844.844H12.006c-.437,2.537-2.318,4.123-5.256,4.123H.844A.844.844,0,0,0,0,18.466v3.727a.844.844,0,0,0,.271.62L11.877,33.526a.844.844,0,0,0,.572.224h5.805a.844.844,0,0,0,.572-1.464L8.217,22.493A9.633,9.633,0,0,0,17.943,13.5h3.713a.844.844,0,0,0,.844-.844V9.844A.844.844,0,0,0,21.656,9H17.53a9.631,9.631,0,0,0-1-2.25Z" transform="translate(0 -2.25)"/>
</svg>
