<svg id="Layer_1" data-name="Layer 1" fill="currentColor" xmlns="http://www.w3.org/2000/svg" width="24" height="24"  viewBox="0 0 24.36 23.38"><path d="M12.26,22.78H.67c-.27,0-.37-.06-.35-.34s0-.76,0-1.14c0-.57-.07-.5.48-.5,1.43,0,2.86,0,4.29,0,.12,0,.25,0,.35-.06a.63.63,0,0,0,.33.06h4.76c.11,0,.23,0,.33-.06.33,0,.65.07,1,.06a8.27,8.27,0,0,0,5.2-2,8.1,8.1,0,0,0,2.76-4.51,8.17,8.17,0,0,0-1.11-6.4A8.27,8.27,0,0,0,13.79,4.3c-.38-.1-.39-.09-.37.31,0,.24.06.47.06.71s-.06.26-.26.15C12.1,4.89,11,4.32,9.84,3.75l-.52-.26c-.14-.07-.18-.12,0-.22L13,.87c.21-.13.28,0,.29.14s0,.62,0,.93.05.26.26.3a9.85,9.85,0,0,1,4.43,2A10.05,10.05,0,0,1,20,6.35a9.89,9.89,0,0,1,1.79,4.23A9.52,9.52,0,0,1,22,12.9a10.19,10.19,0,0,1-.85,3.65A10.45,10.45,0,0,1,18.73,20c-.31.29-.66.55-1,.83A11,11,0,0,1,14,22.53C13.4,22.66,12.83,22.7,12.26,22.78Z" transform="translate(-0.32 -0.81)"/><path d="M7.61,12.25a4,4,0,1,1,4,4A4,4,0,0,1,7.61,12.25ZM11.41,14l.19-.17c.53-.54,1.07-1.08,1.61-1.61s.54-.55,0-1.08c-.13-.12-.2-.13-.32,0-.31.33-.63.65-.95,1-.17.17-.32.46-.51.45s-.33-.28-.49-.43c-.56-.56-.56-.56-1.1,0-.1.11-.1.17,0,.27l1.46,1.46A.65.65,0,0,0,11.41,14Z" transform="translate(-0.32 -0.81)"/><path d="M10.87,20.76c-.1.09-.22.06-.33.06H5.78a.63.63,0,0,1-.33-.06,10.46,10.46,0,0,1-3.1-3.7,9.84,9.84,0,0,1-1-3.68,10.16,10.16,0,0,1,3.3-8.59,10,10,0,0,1,3.5-2.14c.25-.09.37,0,.44.22.12.45.27.89.43,1.32.07.2,0,.26-.17.33a8.1,8.1,0,0,0-5.18,5.4,8.08,8.08,0,0,0,1.66,8,8.18,8.18,0,0,0,5.24,2.84Z" transform="translate(-0.32 -0.81)"/><path d="M12.26,22.78c.57-.08,1.14-.12,1.69-.25a11,11,0,0,0,3.79-1.72h2.53c.2,0,.25-.07.24-.25s0-.62,0-.92,0-.3.25-.17c1.26.74,2.52,1.46,3.79,2.19.15.09.2.15,0,.26l-3.82,2.2c-.16.1-.24.09-.23-.12s0-.6,0-.9-.07-.32-.33-.32c-2.36,0-4.73,0-7.1,0Z" transform="translate(-0.32 -0.81)"/></svg>