<svg id="Layer_1" data-name="Layer 1" fill="currentColor" xmlns="http://www.w3.org/2000/svg" viewBox="0 0 24.35 18.79"><path d="M10.13,9.19a2.51,2.51,0,0,1-2.55,2,2.59,2.59,0,0,1-2.32-2,2.62,2.62,0,0,1-.6,1.2,2.37,2.37,0,0,1-2.61.68A2.38,2.38,0,0,1,.38,9a.65.65,0,0,1,.11-.46Q2.28,5.8,4.05,3a.43.43,0,0,1,.4-.22h16.2a.41.41,0,0,1,.4.22c1.17,1.82,2.35,3.65,3.54,5.46a.77.77,0,0,1,.12.58A2.35,2.35,0,0,1,23.19,11a2.32,2.32,0,0,1-2.43-.36,2.46,2.46,0,0,1-.91-1.51,2.48,2.48,0,0,1-2.22,2c-1.15.12-2-.53-2.64-1.93-.61,1.42-1.45,2-2.64,1.93A2.56,2.56,0,0,1,10.13,9.19Z" transform="translate(-0.37 -2.81)"/><path d="M12.55,21.6H2.45c-.35,0-.36,0-.36-.35V14.19c0-.31,0-.31.32-.29a5.29,5.29,0,0,0,2.23-.3c.29-.11.3-.1.31.2v4.64c0,.34,0,.34.32.34H19.82c.33,0,.33,0,.33-.34V13.83c0-.34,0-.34.33-.22a5.29,5.29,0,0,0,2.3.27c.2,0,.23.06.23.21v7.15c0,.36,0,.36-.35.36Z" transform="translate(-0.37 -2.81)"/></svg>