<svg id="Layer_1" data-name="Layer 1" xmlns="http://www.w3.org/2000/svg" viewBox="0 0 20.78 20.78"><path d="M12.29,15.85H2.44c-.5,0-.51,0-.51-.5q0-5.16,0-10.32A1.69,1.69,0,0,1,3.21,3.21a1.58,1.58,0,0,1,.43,0c3,0,5.95,0,8.92,0h.12a.23.23,0,0,1,.28.19.26.26,0,0,1-.14.3A1.9,1.9,0,0,0,12.4,6s0,.08.08.1a.72.72,0,0,1,.35.92.77.77,0,0,0,.1.44,1.85,1.85,0,0,0,1.86,1.15.25.25,0,0,1,.24.11,1.72,1.72,0,0,0,2.76.07.27.27,0,0,1,.29-.09,1.72,1.72,0,0,0,2-1.85.34.34,0,0,1,.19-.37,1.18,1.18,0,0,0,.58-1c0-.21,0-.41,0-.62a1.19,1.19,0,0,0-.58-1c-.23-.14-.12-.31-.1-.49s.17-.21.32-.2a3.39,3.39,0,0,1,1.05.08A1.73,1.73,0,0,1,22.69,5c0,2.15,0,4.29,0,6.44v3.94c0,.44,0,.46-.45.46Zm-2.85-3c.3,0,.44-.27.66-.4a.58.58,0,0,0,.24-.73c-.07-.21-.12-.42-.18-.63a.35.35,0,0,1,.26-.5l.65-.22A1.1,1.1,0,0,0,11.45,9a.75.75,0,0,0-.17-.14A3.37,3.37,0,0,0,11,8.68c-.69-.37-.69-.37-.34-1.08s.32-.64-.15-1.19a.7.7,0,0,1-.08-.1.52.52,0,0,0-.61-.18l-.69.18a.35.35,0,0,1-.5-.26c-.07-.23-.14-.46-.22-.68A1.15,1.15,0,0,0,7,5a1.1,1.1,0,0,0-.17.25c-.11.19-.22.38-.32.57A.35.35,0,0,1,5.94,6c-.22-.12-.44-.23-.67-.33s-1.2.38-1.19.8a.78.78,0,0,0,0,.21c.06.23.12.46.19.69a.35.35,0,0,1-.26.5l-.68.22a.47.47,0,0,0-.31.2,1.93,1.93,0,0,0-.11,1c0,.24.25.3.42.41l.49.27a.33.33,0,0,1,.16.51c-.11.2-.21.41-.31.61a1.2,1.2,0,0,0,.72,1.28,1.09,1.09,0,0,0,.25,0c.24-.07.48-.13.71-.21a.33.33,0,0,1,.46.24c.08.24.17.47.24.71a.51.51,0,0,0,.46.39c.86.13.86.13,1.29-.63l0-.08c.28-.48.3-.48.79-.24A2.41,2.41,0,0,0,9.44,12.86Zm7.18-.68H14c-.22,0-.41,0-.49.29s.12.51.48.51h5.31c.34,0,.51-.14.51-.4s-.16-.39-.51-.4Zm1.32-.76h1.28c.34,0,.54-.16.54-.42s-.18-.42-.53-.42H16.65c-.34,0-.54.17-.53.43s.2.4.52.41Z" transform="translate(-1.92 -1.53)"/><path d="M12.32,16.64h9.94c.43,0,.45,0,.44.46a1.7,1.7,0,0,1-1.81,1.75H15.76c-.38,0-.41,0-.38.4a3.28,3.28,0,0,0,.58,1.9.52.52,0,0,0,.48.22,4.69,4.69,0,0,1,.53,0,.49.49,0,0,1,.51.47c0,.25-.19.42-.5.46a2.61,2.61,0,0,1-.28,0H7.91a2.3,2.3,0,0,1-.37,0,.45.45,0,0,1,0-.9,2.56,2.56,0,0,1,.62,0,.57.57,0,0,0,.5-.24,3.49,3.49,0,0,0,.58-2.08c0-.17-.1-.21-.24-.21H3.7a1.73,1.73,0,0,1-1.77-2c0-.17.08-.27.26-.26H12.32Z" transform="translate(-1.92 -1.53)"/><path d="M14.59,2.23a2.24,2.24,0,0,1,.67.24c.2.08.34.06.41-.16a.36.36,0,0,1,0-.09c.31-.67.55-.79,1.26-.62.21,0,.29.21.37.39.27.63.28.64.91.41a.66.66,0,0,1,.79.24c.23.25.41.47.26.85-.26.63-.25.66.37.94.4.18.37.5.37.84a.61.61,0,0,1-.41.65c-.63.27-.65.29-.41.93.17.44-.12.64-.36.89a.59.59,0,0,1-.73.15c-.64-.26-.66-.26-.94.36a.69.69,0,0,1-.76.39c-.35,0-.63-.07-.77-.45-.23-.61-.25-.62-.88-.4A.67.67,0,0,1,14,7.55a.72.72,0,0,1-.25-.85c.26-.63.25-.64-.38-.93C13,5.6,13,5.31,13,5s0-.57.38-.71c.66-.29.66-.3.44-1a.53.53,0,0,1,.14-.64C14.14,2.5,14.29,2.25,14.59,2.23Zm3.2,2.87a1.28,1.28,0,1,0-2.56,0,1.28,1.28,0,1,0,2.56,0Z" transform="translate(-1.92 -1.53)"/><path d="M5.65,9.24a1.62,1.62,0,0,1,1.6-1.6,1.6,1.6,0,0,1,0,3.19A1.58,1.58,0,0,1,5.65,9.24Z" transform="translate(-1.92 -1.53)"/></svg>