<svg id="Layer_1" data-name="Layer 1" fill="currentColor" xmlns="http://www.w3.org/2000/svg" viewBox="0 0 24.38 19.46"><path d="M4.64,3.09c.84,0,1.69,0,2.54,0a4.21,4.21,0,0,1,3,1.23q4,4,8.06,8.06c.37.36.75.71,1.1,1.1a1.64,1.64,0,0,1-.06,2.27L13,22.05a1.7,1.7,0,0,1-2.39,0Q6.08,17.49,1.53,13A4.42,4.42,0,0,1,.31,10.39a3,3,0,0,1,0-.42V4.75A1.68,1.68,0,0,1,1.6,3.13a1.81,1.81,0,0,1,.4,0ZM2.79,7.21a1.63,1.63,0,0,0,1.6,1.63,1.63,1.63,0,1,0,0-3.25A1.62,1.62,0,0,0,2.79,7.21Z" transform="translate(-0.29 -3.09)"/><path d="M9.38,3.09h.29c.81,0,1.62,0,2.43,0a4.15,4.15,0,0,1,3,1.22c3,3,6,6,9.07,9a1.66,1.66,0,0,1,.2,2.23,6,6,0,0,1-.43.45l-6,6a1.71,1.71,0,0,1-1.69.45,1.4,1.4,0,0,1-.55-.32l-.35-.32a.09.09,0,0,1,0-.15l.06-.06,5.83-5.82a1.66,1.66,0,0,0,.54-1.19,1.53,1.53,0,0,0-.43-1.14c-.53-.55-1.08-1.09-1.62-1.63L12.2,4.36A4.47,4.47,0,0,0,9.7,3.15l-.16,0H9.38Z" transform="translate(-0.29 -3.09)"/></svg>