<svg id="Layer_1" fill="currentColor" data-name="Layer 1" xmlns="http://www.w3.org/2000/svg" viewBox="0 0 15.04 19.45"><path d="M12.53,2.25h6.25c1.06,0,1.2.22,1.11,1.29-.16,1.88-.27,3.78-.4,5.67a.75.75,0,0,0,.23.7.67.67,0,0,1,.16.24,4.26,4.26,0,0,1-1,4.06,4.86,4.86,0,0,1-2.62.77c-.11,0-.23,0-.35,0-1.05.11-1.25.38-1.08,1.43.12.76.17,1.53.32,2.28a2.54,2.54,0,0,1-2.85,3,2.5,2.5,0,0,1-2.45-3.06c.11-.81.24-1.61.35-2.41s-.08-1-.85-1.17c-.53-.09-1.06-.13-1.58-.18A3,3,0,0,1,5,12c0-.46,0-.91,0-1.37,0-.14,0-.32.06-.4.55-.53.31-1.17.28-1.78-.09-1.67-.2-3.35-.32-5-.07-.89.13-1.13,1-1.14Zm0,8.68H6.89c-.26,0-.56-.06-.65.33a1.88,1.88,0,0,0,1.7,2.46c.57.07,1.14.1,1.7.19a1.88,1.88,0,0,1,1.71,2.26c-.1.92-.28,1.84-.36,2.76a1.29,1.29,0,0,0,1.43,1.58c1.18,0,1.7-.57,1.56-1.8-.11-.88-.27-1.76-.36-2.64a1.83,1.83,0,0,1,1.58-2.13c.54-.1,1.09-.15,1.64-.2,1.37-.12,1.9-.73,1.91-2.11,0-.55-.18-.72-.71-.71C16.19,11,14.34,10.93,12.49,10.93Zm-.05-1.24c1.75,0,3.5,0,5.25,0,.49,0,.67-.17.67-.65,0-.71.08-1.42.12-2.13,0-.29.07-.61-.29-.76a.84.84,0,0,0-.93.17c-.33.29-.64.59-1,.87A1.11,1.11,0,0,1,14.44,7c-.29-.4-.52-.84-.8-1.25s-.55-.49-.9,0-.57.81-.9,1.17a1.34,1.34,0,0,1-2.12,0,3.34,3.34,0,0,1-.35-.4c-.38-.44-.62-.46-1,0a2.28,2.28,0,0,1-1,.82c-.86.29-.86.29-.75,1.21a3.08,3.08,0,0,1,0,.53c0,.49.18.64.65.63C9,9.68,10.71,9.69,12.44,9.69Z" transform="translate(-5.02 -2.25)"/><path d="M13.47,19.11a1,1,0,1,1-2,0,1,1,0,1,1,2,0Z" transform="translate(-5.02 -2.25)"/></svg>