<svg id="Layer_1" fill="currentColor" data-name="Layer 1" xmlns="http://www.w3.org/2000/svg" viewBox="0 0 22.3 18.56"><path d="M2.47,21.15a1.28,1.28,0,0,1-1.31-1.31c0-1.32,1.31-5.27,7.9-5.27S17,18.52,17,19.84a1.29,1.29,0,0,1-1.32,1.31Zm6.59-7.9A3.95,3.95,0,1,0,5.11,9.3,4,4,0,0,0,9.06,13.25Z" transform="translate(-1.16 -2.59)"/><path d="M16.54,3.36a1.38,1.38,0,0,1,.6.31c.52.32.62.28.79-.3.08-.25,0-.61.39-.69a2.4,2.4,0,0,1,1.52.06c.12,0,.14.19.17.31s.08.34.14.5c.16.4.26.43.64.23.77-.41.81-.41,1.43.23a4.54,4.54,0,0,1,.33.41.46.46,0,0,1,0,.62c-.56.8-.54.85.4,1.1a.5.5,0,0,1,.45.49,5.51,5.51,0,0,1,.06.57c0,.77-.07.86-.81,1-.59.15-.64.26-.34.77s.35.69-.15,1.22a2.5,2.5,0,0,1-.23.23c-.47.43-.53.44-1.09.11l-.31-.19a.3.3,0,0,0-.48.18,2.3,2.3,0,0,0-.1.35c-.16.59-.21.64-.83.67h-.24c-.84,0-.91,0-1.1-.85-.12-.49-.27-.56-.71-.31-.69.38-1,.3-1.52-.35s-.42-.54-.08-1.1.33-.74-.35-.88a.71.71,0,0,1-.67-.75,4.79,4.79,0,0,1,.05-.93A.42.42,0,0,1,14.86,6L15,6c.84-.17,1-.27.48-1a.51.51,0,0,1,0-.7c.19-.23.37-.46.57-.69A.88.88,0,0,1,16.54,3.36ZM19,8.64a1.55,1.55,0,1,0-1.58-1.52A1.56,1.56,0,0,0,19,8.64Z" transform="translate(-1.16 -2.59)"/></svg>