<svg id="Layer_1" data-name="Layer 1" fill="currentColor" width="24" height="24" xmlns="http://www.w3.org/2000/svg" viewBox="0 0 23.76 17.93"><g id="Group_4031" data-name="Group 4031"><path id="Path_4571" data-name="Path 4571" class="cls-1" d="M23.14,3.53H11.64a1,1,0,0,0-1,1V12.9H8.88V6.33H3.73L1,11.38a3.25,3.25,0,0,0-.37,1.29L.4,16.16a1.77,1.77,0,0,0,.09.72L.9,18.14h.19a4.21,4.21,0,0,1,8.41.14l2.78-.14h2.35a4.11,4.11,0,0,1,8.21,0h.31a1,1,0,0,0,1-1V4.53A1,1,0,0,0,23.14,3.53ZM7.4,11.08H2.91L4.65,8H7.4Z" transform="translate(-0.39 -3.53)"/><path id="Path_4572" data-name="Path 4572" class="cls-1" d="M5.29,15.44a3,3,0,1,0,3,3,3,3,0,0,0-3-3Zm0,4.42A1.41,1.41,0,1,1,6.7,18.45a1.41,1.41,0,0,1-1.41,1.41Z" transform="translate(-0.39 -3.53)"/><path id="Path_4573" data-name="Path 4573" class="cls-1" d="M18.58,15.44a3,3,0,1,0,3,3h0a3,3,0,0,0-3-3Zm0,4.42A1.41,1.41,0,1,1,20,18.45h0a1.41,1.41,0,0,1-1.41,1.41Z" transform="translate(-0.39 -3.53)"/></g></svg>