<svg id="cash-coin" xmlns="http://www.w3.org/2000/svg" width="77.282" height="77.282" viewBox="0 0 77.282 77.282">
  <path id="Path_382" data-name="Path 382" d="M30.151,49.471A19.321,19.321,0,1,0,10.83,30.151,19.321,19.321,0,0,0,30.151,49.471ZM54.3,30.151A24.151,24.151,0,1,1,30.151,6,24.151,24.151,0,0,1,54.3,30.151Z" transform="translate(22.981 22.981)" fill="#0f75bc" fill-rule="evenodd"/>
  <path id="Path_383" data-name="Path 383" d="M9.442,25.135c.227,2.879,2.5,5.12,6.583,5.39v2.125h1.811v-2.14c4.226-.295,6.695-2.555,6.695-5.83,0-2.985-1.884-4.521-5.265-5.313l-1.43-.338v-5.8a3.382,3.382,0,0,1,3.241,2.57h3.178c-.227-2.777-2.608-4.946-6.419-5.183V8.5H16.025v2.174c-3.608.353-6.062,2.521-6.062,5.593,0,2.715,1.826,4.444,4.864,5.149l1.2.295v6.144c-1.855-.28-3.086-1.3-3.362-2.719H9.437Zm6.569-6.54c-1.782-.411-2.748-1.256-2.748-2.521,0-1.42,1.043-2.483,2.763-2.792v5.313ZM18.1,22.2c2.169.5,3.164,1.314,3.164,2.748,0,1.637-1.241,2.758-3.425,2.966V22.14l.261.058Z" transform="translate(36.145 32.556)" fill="#0f75bc"/>
  <path id="Path_384" data-name="Path 384" d="M4.83,0A4.83,4.83,0,0,0,0,4.83V43.471A4.83,4.83,0,0,0,4.83,48.3H24.552a29.281,29.281,0,0,1,1.246-4.83H14.49a9.66,9.66,0,0,0-9.66-9.66V14.49a9.66,9.66,0,0,0,9.66-9.66h48.3a9.66,9.66,0,0,0,9.66,9.66V31.531a29.079,29.079,0,0,1,4.83,5.574V4.83A4.83,4.83,0,0,0,72.452,0Z" transform="translate(0)" fill="#0f75bc"/>
  <path id="Path_385" data-name="Path 385" d="M25.312,13.057l.01-.4a9.66,9.66,0,1,0-15.128,7.97,28.894,28.894,0,0,1,15.118-7.569Z" transform="translate(22.98 11.494)" fill="#0f75bc"/>
</svg>
