<svg xmlns="http://www.w3.org/2000/svg" width="88.301" height="81.994" viewBox="0 0 88.301 81.994">
  <g id="check2-circle" transform="translate(-1.5 -1.499)">
    <path id="Path_380" data-name="Path 380" d="M7.808,42.5A34.688,34.688,0,0,1,59.839,12.454a3.153,3.153,0,1,0,3.153-5.462A40.995,40.995,0,1,0,83.49,42.5a3.153,3.153,0,1,0-6.307,0,34.688,34.688,0,1,1-69.375,0Z" transform="translate(0 0)" fill="#0f75bc"/>
    <path id="Path_381" data-name="Path 381" d="M72.958,7.889a3.157,3.157,0,1,0-4.465-4.465L26.577,45.346,9.889,28.652a3.157,3.157,0,0,0-4.465,4.465L24.345,52.037a3.153,3.153,0,0,0,4.465,0Z" transform="translate(15.918 5.309)" fill="#0f75bc"/>
  </g>
</svg>
